<?xml version="1.0" encoding="UTF-8" standalone="no"?>
<svg
   xmlns:dc="http://purl.org/dc/elements/1.1/"
   xmlns:cc="http://creativecommons.org/ns#"
   xmlns:rdf="http://www.w3.org/1999/02/22-rdf-syntax-ns#"
   xmlns:svg="http://www.w3.org/2000/svg"
   xmlns="http://www.w3.org/2000/svg"
   xmlns:sodipodi="http://sodipodi.sourceforge.net/DTD/sodipodi-0.dtd"
   xmlns:inkscape="http://www.inkscape.org/namespaces/inkscape"
   inkscape:version="1.0 (4035a4fb49, 2020-05-01)"
   height="39.400002"
   width="39.400002"
   sodipodi:docname="kofi.svg"
   version="1.1"
   viewBox="0 0 39.400002 39.400002"
   data-name="Layer 1"
   id="Layer_1">
  <metadata
     id="metadata34">
    <rdf:RDF>
      <cc:Work
         rdf:about="">
        <dc:format>image/svg+xml</dc:format>
        <dc:type
           rdf:resource="http://purl.org/dc/dcmitype/StillImage" />
        <dc:title />
      </cc:Work>
    </rdf:RDF>
  </metadata>
  <sodipodi:namedview
     inkscape:current-layer="Layer_1-2"
     inkscape:window-maximized="1"
     inkscape:window-y="-8"
     inkscape:window-x="-8"
     inkscape:cy="15.145304"
     inkscape:cx="15.600533"
     inkscape:zoom="20.772277"
     showgrid="false"
     id="namedview32"
     inkscape:window-height="1387"
     inkscape:window-width="2560"
     inkscape:pageshadow="2"
     inkscape:pageopacity="1"
     guidetolerance="10"
     gridtolerance="10"
     objecttolerance="10"
     borderopacity="1"
     bordercolor="#666666"
     pagecolor="#ffffff"
     inkscape:document-rotation="0" />
  <defs
     id="defs9">
    <style
       id="style2">.cls-1{fill:#00b9fe;}.cls-2{fill:#fff;stroke:#000;stroke-linecap:round;stroke-linejoin:round;stroke-width:1.14px;}.cls-3{fill:#ff5e5b;}.cls-4{fill:url(#linear-gradient);}.cls-5{fill:#26272a;}</style>
    <linearGradient
       gradientUnits="userSpaceOnUse"
       gradientTransform="matrix(1,0,0,-1,4.26,-1707.68)"
       y2="-1728.51"
       x2="13.7"
       y1="-1715.77"
       x1="9.5500002"
       id="linear-gradient">
      <stop
         id="stop4"
         stop-color="#ff4ea3"
         offset="0" />
      <stop
         id="stop6"
         stop-color="#ff5e5b"
         offset="1" />
    </linearGradient>
  </defs>
  <path
     d="M 19.699219 0 A 19.700001 19.700001 0 0 0 0 19.699219 A 19.700001 19.700001 0 0 0 19.699219 39.400391 A 19.700001 19.700001 0 0 0 39.400391 19.699219 A 19.700001 19.700001 0 0 0 19.699219 0 z M 6.5996094 10.699219 L 28.599609 10.699219 A 7.67 7.67 0 0 1 33 12.099609 A 6.55 6.55 0 0 1 35.900391 16.599609 C 36.900391 21.799609 33 25.7 27.5 25.5 C 27.5 26.9 27.3 29.499219 24.5 30.199219 L 23.800781 30.199219 C 19.000781 30.299219 8.9003906 30.300781 8.9003906 30.300781 A 3.29 3.29 0 0 1 5.5996094 27.199219 C 5.3996094 21.899219 5.5 12.199219 5.5 12.199219 L 5.5 11.900391 A 1.28 1.28 0 0 1 6.5996094 10.699219 z M 29.146484 14.498047 A 3 3 0 0 0 29 14.5 L 27.5 14.5 L 27.5 21.699219 A 15.48 15.48 0 0 0 29.699219 21.599609 A 3.35 3.35 0 0 0 32.300781 18 A 3.57 3.57 0 0 0 31.5 15.699219 A 3 3 0 0 0 29.146484 14.498047 z "
     style="fill:#bababa;fill-opacity:1"
     id="circle13" />
  <g
     transform="translate(-0.69999886,-0.29999924)"
     data-name="Layer 1-2"
     id="Layer_1-2">
    <g
       data-name="Layer 1-3"
       id="Layer_1-3">
      <path
         id="path17"
         d="m 17,26.4 c 0.3,0.1 0.4,0 0.4,0 0,0 3.5,-3.2 5.1,-5.1 1.4,-1.7 1.5,-4.4 -0.9,-5.5 -2.4,-1.1 -4.4,1.2 -4.4,1.2 a 3.94,3.94 0 0 0 -5.5,-0.6 l -0.1,0.1 c -1.2,1.3 -0.8,3.5 0.1,4.7 a 60.17,60.17 0 0 0 5.1,5 z"
         class="cls-3" />
      <path
         style="fill:url(#linear-gradient)"
         id="path19"
         d="m 17.2,26.5 a 0.37,0.37 0 0 0 0.3,-0.1 c 0,0 3.5,-3.2 5.1,-5.1 1.4,-1.7 1.5,-4.4 -0.9,-5.5 -2.4,-1.1 -4.4,1.2 -4.4,1.2 a 3.94,3.94 0 0 0 -5.5,-0.6 l -0.1,0.1 c -1.2,1.3 -0.8,3.5 0.1,4.7 a 62.58,62.58 0 0 0 5.2,5.1 c 0,0.2 0.1,0.2 0.2,0.2 z"
         class="cls-4" />
    </g>
  </g>
</svg>
